<svg xmlns="http://www.w3.org/2000/svg" viewBox="0 0 40 40" width="40" height="40">
  <!-- Chaotic tornado with debris flying out -->
  <circle cx="20" cy="20" r="18" fill="#1e293b"/>
  <!-- Tornado body - wobbly and aggressive -->
  <path d="M8 10 Q14 13, 32 9" stroke="white" stroke-width="2.2" fill="none" stroke-linecap="round"/>
  <path d="M10 15 Q18 19, 30 14" stroke="white" stroke-width="2" fill="none" stroke-linecap="round"/>
  <path d="M13 20 Q20 24, 27 19" stroke="white" stroke-width="1.8" fill="none" stroke-linecap="round"/>
  <path d="M16 25 Q20 28, 24 24" stroke="white" stroke-width="1.6" fill="none" stroke-linecap="round"/>
  <path d="M18 29 Q20 31, 22 29" stroke="white" stroke-width="1.4" fill="none" stroke-linecap="round"/>
  <!-- Debris particles flying off -->
  <circle cx="7" cy="7" r="1.2" fill="#facc15"/>
  <circle cx="33" cy="6" r="1" fill="#fb923c"/>
  <circle cx="6" cy="15" r="0.8" fill="#f87171"/>
  <circle cx="34" cy="13" r="1.1" fill="#a78bfa"/>
  <circle cx="35" cy="21" r="0.7" fill="#facc15"/>
  <rect x="4" y="11" width="2" height="2" rx="0.5" fill="#34d399" transform="rotate(30 5 12)"/>
  <rect x="33" y="17" width="1.8" height="1.8" rx="0.5" fill="#f87171" transform="rotate(-20 34 18)"/>
</svg>
